<svg xmlns="http://www.w3.org/2000/svg" width="24.001" height="24" viewBox="0 0 24.001 24">
  <g id="Group_23" data-name="Group 23" transform="translate(-14.674 -167.674)">
    <g id="Rectangle_29" data-name="Rectangle 29" transform="translate(14.674 167.674)" fill="#418fde" stroke="#707070" stroke-width="1" opacity="0">
      <rect width="24" height="24" stroke="none"/>
      <rect x="0.5" y="0.5" width="23" height="23" fill="none"/>
    </g>
    <g id="Layer_2" data-name="Layer 2" transform="translate(14.673 167.673)">
      <g id="Icons" transform="translate(0.001 0.001)">
        <path id="Path_170" data-name="Path 170" d="M6.331,23.8l.944-.944a1,1,0,0,0,.277-.553,1.086,1.086,0,0,0-.308-.934,1.114,1.114,0,0,0-.522-.292,1.02,1.02,0,0,0-.965.261l-1.44,1.44L3.164,23.927A1.054,1.054,0,0,0,3.2,25.413a1.1,1.1,0,0,0,.772.323,1.02,1.02,0,0,0,.715-.292L6.331,23.8Z" transform="translate(-1.306 -9.563)" fill="#418fde"/>
        <path id="Path_171" data-name="Path 171" d="M12.3,5.809l-.146.146L10.16,7.948l-.073.073-.777.772A2.075,2.075,0,0,1,7.833,9.4c-.063,0-.125-.005-.188-.01-.021,0-.047-.005-.068-.005A2.08,2.08,0,0,1,6.356,5.84L10.8,1.406c.11-.11.224-.219.339-.318A7.3,7.3,0,0,0,2.141,12.471l.063.063,1.508-1.508a2.039,2.039,0,0,1,1.456-.595,2.105,2.105,0,0,1,1.054.276,2.127,2.127,0,0,1,.464.35,2.164,2.164,0,0,1,.558.976,2.27,2.27,0,0,1,.068.5,1.816,1.816,0,0,1-.073.584,1.856,1.856,0,0,1,.537-.073,2.138,2.138,0,0,1,2.144,2.1,1.816,1.816,0,0,1-.073.584,1.855,1.855,0,0,1,.537-.073,2.138,2.138,0,0,1,2.144,2.1,1.816,1.816,0,0,1-.073.584,1.856,1.856,0,0,1,.537-.073,2.138,2.138,0,0,1,2.144,2.1,2.027,2.027,0,0,1-.188.918,1.6,1.6,0,0,0,.6.12,1.566,1.566,0,0,0,1.367-2.327,1.561,1.561,0,0,0,2.15-2.155,1.529,1.529,0,0,0,.762.2,1.565,1.565,0,0,0,1.106-2.671Z" transform="translate(-0.001 -0.001)" fill="#418fde"/>
        <path id="Path_172" data-name="Path 172" d="M20.816,35.386a.85.85,0,0,0-.162.016,1.017,1.017,0,0,0-.553.277l-2.593,2.593a1.054,1.054,0,0,0,.031,1.487,1.1,1.1,0,0,0,.772.323,1.02,1.02,0,0,0,.715-.292L21.62,37.2a1,1,0,0,0,.277-.553,1.1,1.1,0,0,0-1.08-1.257Z" transform="translate(-7.825 -16.081)" fill="#418fde"/>
        <path id="Path_173" data-name="Path 173" d="M12.333,27.08a1.1,1.1,0,0,0-1.08-1.257.851.851,0,0,0-.162.016,1.017,1.017,0,0,0-.553.277L7.946,28.708a1.054,1.054,0,0,0,.031,1.487,1.1,1.1,0,0,0,.772.323,1.02,1.02,0,0,0,.715-.292l2.593-2.593A1,1,0,0,0,12.333,27.08Z" transform="translate(-3.479 -11.736)" fill="#418fde"/>
        <path id="Path_174" data-name="Path 174" d="M17.115,31.862a1.1,1.1,0,0,0-1.08-1.257.85.85,0,0,0-.162.016,1.017,1.017,0,0,0-.553.277L12.727,33.49a1.054,1.054,0,0,0,.031,1.487,1.1,1.1,0,0,0,.772.323,1.02,1.02,0,0,0,.715-.292l2.593-2.593a1,1,0,0,0,.277-.553Z" transform="translate(-5.652 -13.909)" fill="#418fde"/>
        <path id="Path_175" data-name="Path 175" d="M27.519,2.141a7.3,7.3,0,0,0-9.86-.428c-.162.136-.318.277-.47.428L12.754,6.575A1.044,1.044,0,0,0,14.23,8.052l3.845-3.845L19.4,5.532l7.492,7.492a6.969,6.969,0,0,0,.626-.553,7.3,7.3,0,0,0,0-10.33Z" transform="translate(-5.658 -0.001)" fill="#418fde"/>
      </g>
    </g>
  </g>
</svg>
