<svg xmlns="http://www.w3.org/2000/svg" width="17.992" height="24" viewBox="0 0 17.992 24">
  <g id="Layer_2" data-name="Layer 2" transform="translate(-0.005)">
    <g id="Icons" transform="translate(0.005 0)">
      <path id="Path_179" data-name="Path 179" d="M17.425,20.745,13.5,13h-9L.575,20.745a6.979,6.979,0,0,0,1.415,7.64A6.908,6.908,0,0,0,7,30.5h4a6.908,6.908,0,0,0,5.01-2.115,6.979,6.979,0,0,0,1.415-7.64ZM9.5,25.5v.75a.75.75,0,1,1-1.5,0V25.5H7.75a.75.75,0,1,1,0-1.5H9.225a.75.75,0,1,0,0-1.5H8.78A2.246,2.246,0,0,1,8,18.135V17.25a.75.75,0,0,1,1.5,0V18h.75a.75.75,0,1,1,0,1.5H8.78a.751.751,0,1,0,0,1.5h.445A2.257,2.257,0,0,1,9.5,25.5Z" transform="translate(-0.005 -6.5)" fill="#fff"/>
      <path id="Path_180" data-name="Path 180" d="M7.993,6.5h4l-.824-3.717A1,1,0,0,0,10.192,2h-2.7A.5.5,0,0,0,7,2.608Z" transform="translate(-3.499 -1)" fill="#fff"/>
      <path id="Path_181" data-name="Path 181" d="M20,5.5h2L22.987.59A.5.5,0,0,0,22.492,0H21a1.015,1.015,0,0,0-1,1,1.009,1.009,0,0,0-1-1H17.5A.5.5,0,0,0,17,.59l.99,4.91Z" transform="translate(-8.501 0)" fill="#fff"/>
    </g>
  </g>
</svg>
