<?xml version="1.0" encoding="UTF-8"?>
<svg id="Layer_29" data-name="Layer 29" xmlns="http://www.w3.org/2000/svg" viewBox="0 0 160.87 20.54">
  <defs>
    <style>
      .cls-1 {
        fill: #979797;
      }

      .cls-2 {
        fill: #555;
      }

      .cls-3 {
        fill: #418fde;
      }

      .cls-4 {
        fill: #f37261;
      }

      .cls-5 {
        fill: #fbd45c;
      }
    </style>
  </defs>
  <path class="cls-5" d="M10.2,20.5C4.57,20.5,0,15.94,0,10.3S4.57,.1,10.2,.1"/>
  <path class="cls-4" d="M11.44,.1c5.63,0,10.2,4.57,10.2,10.2s-4.57,10.2-10.2,10.2"/>
  <g>
    <path class="cls-1" d="M27.94,5.42l.18,2.12c.49-.76,1.1-1.34,1.82-1.76,.72-.42,1.53-.63,2.42-.63,1.49,0,2.66,.48,3.5,1.44,.84,.96,1.26,2.48,1.26,4.56v9.06h-4.01V11.17c0-1.06-.18-1.81-.55-2.25-.37-.44-.92-.66-1.66-.66-.59,0-1.11,.11-1.57,.33-.45,.22-.82,.53-1.11,.92v10.71h-3.99V5.42h3.72Z"/>
    <path class="cls-1" d="M46.5,20.5c-2.21,0-3.93-.68-5.17-2.03-1.24-1.35-1.86-3.1-1.86-5.23v-.55c0-2.21,.6-4.03,1.8-5.44,1.2-1.41,2.86-2.11,4.96-2.11,1.99,0,3.51,.61,4.57,1.83,1.06,1.22,1.59,2.86,1.59,4.92v2.06h-8.82l-.04,.08c.06,1.01,.37,1.83,.92,2.46,.55,.63,1.37,.94,2.45,.94,.89,0,1.65-.09,2.28-.27,.62-.18,1.27-.46,1.93-.83l1.08,2.46c-.59,.48-1.39,.89-2.41,1.22s-2.11,.49-3.31,.49Zm-.26-12.28c-.8,0-1.42,.28-1.85,.83-.43,.55-.7,1.28-.79,2.19l.03,.07h4.87v-.3c0-.87-.18-1.55-.53-2.04-.36-.5-.93-.75-1.72-.75Z"/>
    <path class="cls-3" d="M70.76,17.5c-.62,.81-1.54,1.52-2.78,2.11-1.23,.6-2.82,.9-4.76,.9-2.41,0-4.38-.76-5.91-2.27-1.53-1.51-2.3-3.48-2.3-5.89v-4.16c0-2.41,.74-4.37,2.23-5.89C58.74,.78,60.65,.02,62.98,.02s4.3,.58,5.59,1.73c1.29,1.15,1.92,2.69,1.87,4.61l-.03,.08h-3.76c0-1.06-.31-1.88-.92-2.47-.61-.59-1.5-.88-2.67-.88s-2.21,.47-2.95,1.42c-.75,.94-1.12,2.16-1.12,3.64v4.18c0,1.5,.38,2.73,1.15,3.68,.77,.95,1.79,1.42,3.08,1.42,.95,0,1.7-.1,2.25-.29,.55-.19,.98-.43,1.28-.72v-3.86h-3.83v-2.76h7.83v7.68Z"/>
    <path class="cls-3" d="M83.8,15.02h.08L89,.35h5.21V20.26h-3.99V6.67h-.08s-4.92,13.59-4.92,13.59h-2.71l-4.92-13.63h-.08v13.63h-3.99V.35h5.24l5.06,14.67Z"/>
    <path class="cls-3" d="M107.76,15.02c0-.77-.27-1.38-.8-1.85s-1.47-.9-2.81-1.31c-2.3-.69-4.04-1.51-5.23-2.45-1.19-.94-1.78-2.22-1.78-3.84s.67-2.96,2.01-4c1.34-1.03,3.05-1.55,5.13-1.55,2.21,0,3.98,.56,5.33,1.67,1.34,1.11,1.99,2.57,1.95,4.38l-.03,.08h-3.87c0-.99-.3-1.76-.9-2.29s-1.44-.8-2.53-.8c-.98,0-1.75,.24-2.28,.71-.54,.47-.81,1.08-.81,1.82,0,.67,.29,1.23,.88,1.66,.58,.43,1.59,.89,3.02,1.37,2.19,.62,3.86,1.43,5,2.43s1.72,2.31,1.72,3.94-.67,3.05-2,4.03c-1.33,.98-3.09,1.48-5.28,1.48s-3.98-.53-5.52-1.6c-1.54-1.07-2.28-2.66-2.24-4.77l.03-.08h3.87c0,1.18,.35,2.04,1.04,2.6,.69,.56,1.63,.83,2.82,.83,1.07,0,1.88-.22,2.44-.67,.56-.45,.84-1.04,.84-1.79Z"/>
  </g>
  <g>
    <path class="cls-2" d="M119.27,4.4c-.18,.23-.43,.41-.75,.53s-.68,.18-1.09,.18-.79-.09-1.11-.28-.57-.46-.74-.81c-.17-.35-.26-.76-.27-1.23v-.39c0-.75,.18-1.34,.54-1.76,.36-.42,.86-.63,1.51-.63,.55,0,.99,.14,1.32,.41,.33,.27,.52,.67,.59,1.18h-.85c-.1-.6-.44-.9-1.04-.9-.39,0-.68,.14-.88,.42-.2,.28-.31,.69-.31,1.23v.38c0,.54,.11,.95,.34,1.25,.23,.3,.54,.45,.95,.45,.44,0,.76-.1,.94-.3v-.97h-1.03v-.66h1.89v1.91Z"/>
    <path class="cls-2" d="M122.6,2.11c-.11-.02-.22-.03-.34-.03-.38,0-.64,.15-.77,.44v2.53h-.83V1.35h.79l.02,.41c.2-.32,.48-.48,.83-.48,.12,0,.22,.02,.29,.05v.78Z"/>
    <path class="cls-2" d="M125.76,5.04c-.04-.07-.07-.19-.1-.35-.26,.28-.59,.41-.97,.41s-.67-.11-.91-.32-.35-.47-.35-.79c0-.39,.15-.7,.44-.91,.29-.21,.71-.32,1.26-.32h.51v-.24c0-.19-.05-.34-.16-.46-.11-.11-.27-.17-.49-.17-.19,0-.34,.05-.46,.14-.12,.09-.18,.21-.18,.36h-.83c0-.2,.07-.39,.2-.57,.13-.18,.32-.31,.55-.42,.23-.1,.49-.15,.77-.15,.43,0,.78,.11,1.04,.33,.26,.22,.39,.52,.4,.92v1.67c0,.33,.05,.6,.14,.8v.06h-.85Zm-.91-.6c.16,0,.32-.04,.46-.12,.15-.08,.25-.19,.33-.32v-.7h-.45c-.31,0-.54,.05-.69,.16s-.23,.26-.23,.45c0,.16,.05,.29,.16,.38,.11,.09,.25,.14,.43,.14Z"/>
    <path class="cls-2" d="M128.63,1.35l.02,.43c.27-.33,.63-.5,1.08-.5,.77,0,1.16,.44,1.18,1.32v2.44h-.83V2.65c0-.23-.05-.41-.15-.52-.1-.11-.27-.17-.5-.17-.33,0-.58,.15-.75,.45v2.63h-.83V1.35h.78Z"/>
    <path class="cls-2" d="M133.32,.45v.9h.65v.62h-.65v2.06c0,.14,.03,.24,.08,.31,.06,.06,.16,.09,.3,.09,.1,0,.19-.01,.29-.03v.64c-.19,.05-.37,.08-.55,.08-.64,0-.96-.35-.96-1.06V1.96h-.61v-.62h.61V.45h.83Z"/>
    <path class="cls-2" d="M116.58,7.07l1.44,3.81,1.43-3.81h1.12v4.98h-.86v-1.64l.09-2.19-1.47,3.83h-.62l-1.47-3.83,.09,2.19v1.64h-.86V7.07h1.12Z"/>
    <path class="cls-2" d="M124.24,12.04c-.04-.07-.07-.19-.1-.35-.26,.28-.59,.41-.97,.41s-.67-.11-.91-.32-.35-.47-.35-.79c0-.39,.15-.7,.44-.91,.29-.21,.71-.32,1.26-.32h.51v-.24c0-.19-.05-.34-.16-.46-.11-.11-.27-.17-.49-.17-.19,0-.34,.05-.46,.14-.12,.09-.18,.21-.18,.36h-.83c0-.2,.07-.39,.2-.57,.13-.18,.32-.31,.55-.42,.23-.1,.49-.15,.77-.15,.43,0,.78,.11,1.04,.33,.26,.22,.39,.52,.4,.92v1.67c0,.33,.05,.6,.14,.8v.06h-.85Zm-.91-.6c.16,0,.32-.04,.46-.12,.15-.08,.25-.19,.33-.32v-.7h-.45c-.31,0-.54,.05-.69,.16s-.23,.26-.23,.45c0,.16,.05,.29,.16,.38,.11,.09,.25,.14,.43,.14Z"/>
    <path class="cls-2" d="M127.11,8.35l.02,.43c.27-.33,.63-.5,1.08-.5,.77,0,1.16,.44,1.18,1.32v2.44h-.83v-2.4c0-.23-.05-.41-.15-.52-.1-.11-.27-.17-.5-.17-.33,0-.58,.15-.75,.45v2.63h-.83v-3.7h.78Z"/>
    <path class="cls-2" d="M132.97,12.04c-.04-.07-.07-.19-.1-.35-.26,.28-.59,.41-.97,.41s-.67-.11-.91-.32-.35-.47-.35-.79c0-.39,.15-.7,.44-.91,.29-.21,.71-.32,1.26-.32h.51v-.24c0-.19-.05-.34-.16-.46-.11-.11-.27-.17-.49-.17-.19,0-.34,.05-.46,.14-.12,.09-.18,.21-.18,.36h-.83c0-.2,.07-.39,.2-.57,.13-.18,.32-.31,.55-.42,.23-.1,.49-.15,.77-.15,.43,0,.78,.11,1.04,.33,.26,.22,.39,.52,.4,.92v1.67c0,.33,.05,.6,.14,.8v.06h-.85Zm-.91-.6c.16,0,.32-.04,.46-.12,.15-.08,.25-.19,.33-.32v-.7h-.45c-.31,0-.54,.05-.69,.16s-.23,.26-.23,.45c0,.16,.05,.29,.16,.38,.11,.09,.25,.14,.43,.14Z"/>
    <path class="cls-2" d="M134.93,10.17c0-.57,.13-1.03,.41-1.38,.27-.34,.63-.51,1.07-.51,.42,0,.75,.15,.99,.44l.04-.37h.75v3.59c0,.49-.15,.87-.45,1.15-.3,.28-.71,.42-1.22,.42-.27,0-.54-.06-.79-.17-.26-.11-.46-.26-.59-.44l.39-.5c.26,.3,.57,.45,.94,.45,.28,0,.49-.07,.65-.22,.16-.15,.24-.37,.24-.66v-.25c-.24,.27-.56,.4-.96,.4-.43,0-.79-.17-1.06-.52-.27-.34-.41-.82-.41-1.43Zm.83,.07c0,.37,.08,.66,.23,.88,.15,.21,.36,.32,.63,.32,.33,0,.58-.14,.75-.43v-1.63c-.16-.28-.4-.42-.74-.42-.27,0-.49,.11-.64,.32-.15,.22-.23,.54-.23,.96Z"/>
    <path class="cls-2" d="M141.19,12.11c-.53,0-.95-.17-1.28-.5-.33-.33-.49-.77-.49-1.32v-.1c0-.37,.07-.7,.21-.99,.14-.29,.34-.52,.6-.68s.54-.24,.86-.24c.5,0,.89,.16,1.17,.48,.27,.32,.41,.78,.41,1.36v.33h-2.42c.02,.31,.13,.55,.31,.72,.18,.18,.4,.27,.68,.27,.38,0,.69-.15,.93-.46l.45,.43c-.15,.22-.35,.39-.59,.51-.25,.12-.52,.18-.83,.18Zm-.1-3.17c-.23,0-.41,.08-.55,.24-.14,.16-.23,.38-.27,.67h1.58v-.06c-.02-.28-.09-.49-.22-.63-.13-.14-.31-.21-.54-.21Z"/>
    <path class="cls-2" d="M144.63,8.35l.02,.39c.26-.3,.62-.45,1.07-.45,.49,0,.83,.19,1.02,.57,.27-.38,.65-.57,1.13-.57,.41,0,.71,.11,.91,.34,.2,.23,.3,.56,.31,1v2.43h-.83v-2.41c0-.23-.05-.41-.15-.52s-.27-.16-.51-.16c-.19,0-.34,.05-.46,.15-.12,.1-.2,.23-.25,.4v2.54s-.83,0-.83,0v-2.43c-.01-.44-.23-.65-.67-.65-.33,0-.57,.14-.71,.41v2.68h-.83v-3.7h.78Z"/>
    <path class="cls-2" d="M152.09,12.11c-.53,0-.95-.17-1.28-.5-.33-.33-.49-.77-.49-1.32v-.1c0-.37,.07-.7,.21-.99,.14-.29,.34-.52,.6-.68s.54-.24,.86-.24c.5,0,.89,.16,1.17,.48,.27,.32,.41,.78,.41,1.36v.33h-2.42c.02,.31,.13,.55,.31,.72,.18,.18,.4,.27,.68,.27,.38,0,.69-.15,.93-.46l.45,.43c-.15,.22-.35,.39-.59,.51-.25,.12-.52,.18-.83,.18Zm-.1-3.17c-.23,0-.41,.08-.55,.24-.14,.16-.23,.38-.27,.67h1.58v-.06c-.02-.28-.09-.49-.22-.63-.13-.14-.31-.21-.54-.21Z"/>
    <path class="cls-2" d="M155.51,8.35l.02,.43c.27-.33,.63-.5,1.08-.5,.77,0,1.16,.44,1.18,1.32v2.44h-.83v-2.4c0-.23-.05-.41-.15-.52-.1-.11-.27-.17-.5-.17-.33,0-.58,.15-.75,.45v2.63h-.83v-3.7h.78Z"/>
    <path class="cls-2" d="M160.2,7.45v.9h.65v.62h-.65v2.06c0,.14,.03,.24,.08,.31,.06,.06,.16,.09,.3,.09,.1,0,.19-.01,.29-.03v.64c-.19,.05-.37,.08-.55,.08-.64,0-.96-.35-.96-1.06v-2.1h-.61v-.62h.61v-.9h.83Z"/>
    <path class="cls-2" d="M118.06,17.76c0-.22-.08-.39-.23-.51-.15-.12-.43-.24-.83-.36s-.72-.26-.96-.4c-.45-.28-.68-.66-.68-1.11,0-.4,.16-.73,.49-.99,.33-.26,.75-.39,1.27-.39,.35,0,.66,.06,.93,.19s.48,.31,.64,.54c.15,.24,.23,.5,.23,.78h-.86c0-.26-.08-.46-.24-.61-.16-.15-.4-.22-.7-.22-.28,0-.5,.06-.66,.18-.16,.12-.23,.29-.23,.51,0,.18,.08,.33,.25,.46,.17,.12,.45,.24,.83,.36,.39,.11,.7,.25,.93,.39,.23,.15,.41,.32,.52,.51,.11,.19,.16,.41,.16,.67,0,.41-.16,.74-.48,.99-.32,.24-.75,.37-1.29,.37-.36,0-.69-.07-.99-.2-.3-.13-.54-.32-.7-.55-.17-.23-.25-.51-.25-.82h.86c0,.28,.09,.5,.28,.66s.45,.23,.8,.23c.3,0,.53-.06,.68-.18,.15-.12,.23-.28,.23-.48Z"/>
    <path class="cls-2" d="M121.42,17.86l.75-2.51h.89l-1.47,4.26c-.23,.62-.61,.93-1.15,.93-.12,0-.25-.02-.4-.06v-.65h.16c.21,.01,.37-.03,.47-.1,.11-.08,.19-.2,.25-.38l.12-.32-1.3-3.68h.9l.78,2.51Z"/>
    <path class="cls-2" d="M126.13,18.04c0-.15-.06-.26-.18-.34-.12-.08-.32-.15-.61-.21s-.52-.13-.71-.23c-.41-.2-.62-.49-.62-.87,0-.32,.13-.59,.4-.8s.61-.32,1.03-.32c.44,0,.8,.11,1.07,.33,.27,.22,.41,.5,.41,.85h-.83c0-.16-.06-.29-.18-.4-.12-.11-.28-.16-.47-.16-.18,0-.33,.04-.45,.13-.12,.08-.17,.2-.17,.34,0,.13,.05,.23,.16,.3s.32,.14,.65,.21c.33,.07,.58,.16,.77,.26,.19,.1,.32,.22,.41,.36,.09,.14,.13,.31,.13,.51,0,.33-.14,.6-.41,.81-.28,.21-.64,.31-1.08,.31-.3,0-.57-.05-.81-.16s-.42-.26-.55-.45-.2-.4-.2-.62h.81c.01,.2,.09,.35,.22,.45,.14,.11,.32,.16,.54,.16s.39-.04,.5-.12c.11-.08,.17-.19,.17-.33Z"/>
    <path class="cls-2" d="M129.24,14.45v.9h.65v.62h-.65v2.06c0,.14,.03,.24,.08,.31,.06,.06,.16,.09,.3,.09,.1,0,.19-.01,.29-.03v.64c-.19,.05-.37,.08-.55,.08-.64,0-.96-.35-.96-1.06v-2.1h-.61v-.62h.61v-.9h.83Z"/>
    <path class="cls-2" d="M132.68,19.11c-.53,0-.95-.17-1.28-.5-.33-.33-.49-.77-.49-1.32v-.1c0-.37,.07-.7,.21-.99,.14-.29,.34-.52,.6-.68s.54-.24,.86-.24c.5,0,.89,.16,1.17,.48,.27,.32,.41,.78,.41,1.36v.33h-2.42c.02,.31,.13,.55,.31,.72,.18,.18,.4,.27,.68,.27,.38,0,.69-.15,.93-.46l.45,.43c-.15,.22-.35,.39-.59,.51-.25,.12-.52,.18-.83,.18Zm-.1-3.17c-.23,0-.41,.08-.55,.24-.14,.16-.23,.38-.27,.67h1.58v-.06c-.02-.28-.09-.49-.22-.63-.13-.14-.31-.21-.54-.21Z"/>
    <path class="cls-2" d="M136.11,15.35l.02,.39c.26-.3,.62-.45,1.07-.45,.49,0,.83,.19,1.02,.57,.27-.38,.65-.57,1.13-.57,.41,0,.71,.11,.91,.34,.2,.23,.3,.56,.31,1v2.43h-.83v-2.41c0-.23-.05-.41-.15-.52s-.27-.16-.51-.16c-.19,0-.34,.05-.46,.15-.12,.1-.2,.23-.25,.4v2.54s-.83,0-.83,0v-2.43c-.01-.44-.23-.65-.67-.65-.33,0-.57,.14-.71,.41v2.68h-.83v-3.7h.78Z"/>
  </g>
</svg>